<svg viewBox="0 0 400 400" fill="none" xmlns="http://www.w3.org/2000/svg"><path d="M44.483 348.927L121.755 187.7l201.725-39.024-181.118 105.715-97.88 94.536zM19 400l169.275-85.23h2.033l-48.903-31.059L19 400zm215.379-85.244l113.877-158.809-183.549 114.018 69.481 44.791h.191zm22.949 10.603L381 395.133l-64.001-156.684-59.671 86.719v.191zM235.779 40.853h-.251L163.544 83.46l174.828 34.599-102.593-77.207zM22.417.015L144.47 71.927l50.228-28.76h-1.944v-.073L22.403 0l.014.015zm99.309 165.622l183.769-34.983-158.036-29.599L36.764 36.221l19.561 28.376 65.415 101.054-.014-.014z" fill="url(#prefix__paint0_linear_1380_1969)"/><defs><linearGradient id="prefix__paint0_linear_1380_1969" x1="37.412" y1="360.593" x2="352.896" y2="135.318" gradientUnits="userSpaceOnUse"><stop stop-color="#0284C7"/><stop offset=".496" stop-color="#2CB1EE"/><stop offset="1" stop-color="#7DD3FC"/></linearGradient></defs></svg>
