<?xml version="1.0" standalone="no"?>
<!DOCTYPE svg PUBLIC "-//W3C//DTD SVG 20010904//EN"
 "http://www.w3.org/TR/2001/REC-SVG-20010904/DTD/svg10.dtd">
<svg version="1.0" xmlns="http://www.w3.org/2000/svg"
 width="400.000000pt" height="400.000000pt" viewBox="0 0 400.000000 400.000000"
 preserveAspectRatio="xMidYMid meet">
<metadata>
Created by potrace 1.14, written by Peter Selinger 2001-2017
</metadata>
<g transform="translate(0.000000,400.000000) scale(0.100000,-0.100000)"
fill="#000000" stroke="none">
<path d="M240 3994 c0 -2 12 -10 28 -19 15 -9 41 -24 57 -35 17 -11 37 -23 45
-27 8 -4 94 -53 190 -110 96 -57 184 -109 195 -115 11 -7 168 -100 350 -207
181 -107 334 -194 340 -194 9 0 429 236 477 268 18 12 4 17 -132 49 -61 15
-1420 359 -1477 374 -40 11 -73 18 -73 16z"/>
<path d="M370 3639 c0 -3 48 -75 108 -162 59 -86 149 -221 199 -299 406 -628
542 -833 552 -830 6 1 28 5 48 8 39 6 54 9 128 24 28 5 61 11 75 14 32 5 99
17 125 23 11 2 65 12 120 23 55 10 172 33 259 50 88 16 173 33 190 36 17 3 90
16 161 30 72 14 202 39 290 55 88 17 203 39 255 49 52 11 108 22 124 24 44 8
41 13 -11 21 -26 5 -52 9 -58 11 -5 1 -37 7 -70 13 -33 6 -71 13 -85 16 -35 7
-300 56 -330 61 -14 3 -47 9 -75 14 -77 16 -82 16 -400 75 -165 31 -309 58
-320 61 -11 2 -57 11 -101 19 -63 11 -99 25 -155 59 -41 25 -108 64 -149 88
-41 23 -83 47 -92 53 -161 94 -467 274 -487 285 -26 15 -178 104 -216 127 -11
7 -27 15 -35 19 -8 4 -23 14 -32 22 -10 8 -18 13 -18 11z"/>
<path d="M2250 3531 c-52 -32 -196 -118 -320 -191 -124 -73 -241 -142 -260
-153 l-34 -21 34 -8 c19 -4 49 -9 65 -12 17 -3 154 -30 305 -60 151 -30 286
-57 300 -60 23 -4 468 -92 515 -102 11 -2 34 -7 50 -10 17 -3 48 -9 70 -14 22
-5 54 -11 70 -14 17 -3 98 -19 180 -36 83 -16 152 -30 154 -30 3 0 -10 11 -29
25 -19 14 -46 34 -60 45 -14 10 -113 85 -220 165 -107 80 -202 152 -210 158
-8 7 -78 59 -155 117 -77 57 -144 108 -150 113 -62 50 -195 147 -202 146 -4 0
-51 -27 -103 -58z"/>
<path d="M3199 2506 c-2 -2 -22 -6 -44 -9 -22 -3 -62 -11 -90 -16 -27 -6 -61
-13 -75 -15 -74 -13 -201 -38 -240 -46 -25 -5 -57 -12 -72 -15 -16 -3 -40 -7
-55 -10 -16 -3 -48 -10 -73 -15 -25 -5 -61 -12 -80 -15 -19 -3 -66 -12 -105
-20 -38 -8 -83 -16 -100 -19 -48 -9 -85 -16 -165 -32 -41 -8 -86 -17 -100 -20
-96 -18 -555 -106 -595 -114 -27 -6 -61 -12 -75 -15 -14 -3 -41 -8 -60 -12
-19 -4 -39 -6 -43 -5 -4 1 -29 -44 -56 -100 -50 -107 -123 -259 -231 -483 -89
-186 -166 -348 -210 -440 -21 -44 -75 -156 -120 -250 -45 -93 -100 -208 -122
-255 l-39 -84 68 64 c37 36 93 90 124 120 31 30 162 156 290 280 128 124 289
280 358 347 l126 123 380 222 c209 122 439 256 510 299 72 42 149 87 172 100
55 31 328 190 418 244 39 23 127 74 198 115 70 40 127 74 127 76 0 5 -16 5
-21 0z"/>
<path d="M3280 2316 c-281 -176 -806 -502 -1247 -775 l-382 -236 22 -18 c12
-11 155 -104 317 -208 162 -104 307 -198 321 -209 26 -19 27 -19 47 5 11 13
29 36 39 52 9 15 20 30 23 33 4 3 22 28 40 55 19 28 38 55 42 60 5 6 60 82
123 170 63 88 118 165 122 170 5 6 75 105 158 220 82 116 158 222 170 236 11
14 26 35 33 45 6 10 72 102 145 204 184 257 228 320 225 319 -2 0 -91 -56
-198 -123z"/>
<path d="M3100 1515 c-116 -169 -336 -490 -456 -663 -35 -51 -64 -97 -64 -102
0 -7 37 -30 160 -98 25 -14 91 -51 147 -83 57 -33 107 -59 113 -59 5 0 10 -4
10 -10 0 -5 4 -10 9 -10 4 0 140 -75 302 -166 162 -91 319 -180 349 -196 30
-17 74 -42 98 -56 l43 -25 -16 39 c-18 44 -135 329 -232 569 -36 88 -71 174
-78 190 -8 17 -48 116 -91 220 -42 105 -103 255 -136 335 -33 80 -65 160 -71
178 -6 17 -13 32 -16 32 -3 0 -35 -43 -71 -95z"/>
<path d="M1374 1127 c-17 -17 -102 -99 -189 -182 -88 -82 -204 -193 -259 -246
-56 -53 -122 -116 -147 -140 -115 -109 -356 -338 -394 -374 -23 -22 -72 -68
-109 -103 -37 -35 -66 -65 -64 -67 1 -2 381 187 843 420 l840 423 -90 57
c-208 130 -341 215 -351 223 -28 24 -49 21 -80 -11z"/>
</g>
</svg>
