<svg viewBox="0 0 131 31" fill="none" xmlns="http://www.w3.org/2000/svg"><path d="M3 22C16.333.667 29.667.667 43 22" stroke="#38BDF8" stroke-width="5" stroke-linecap="round"/><path d="M57.304 20.768h5.248V3.552h-5.248V.32h9.344v20.448h5.28V24H57.304v-3.232zm26.867 3.616c-1.322 0-2.496-.203-3.52-.608-1.023-.405-1.888-.981-2.591-1.728-.683-.747-1.206-1.643-1.569-2.688-.362-1.067-.543-2.261-.543-3.584 0-1.344.18-2.55.544-3.616.383-1.067.917-1.973 1.6-2.72a6.964 6.964 0 012.463-1.728c.982-.405 2.08-.608 3.296-.608 1.195 0 2.273.203 3.233.608a6.51 6.51 0 012.431 1.664c.683.725 1.206 1.6 1.569 2.624.362 1.024.543 2.155.543 3.392v1.344H80.043v.416c0 1.195.374 2.165 1.12 2.912.747.725 1.793 1.088 3.136 1.088 1.024 0 1.9-.203 2.624-.608a5.797 5.797 0 001.856-1.664l2.337 2.336c-.598.875-1.472 1.621-2.624 2.24-1.131.619-2.571.928-4.32.928zm-.288-14.272c-1.151 0-2.08.363-2.783 1.088-.704.725-1.056 1.685-1.056 2.88v.224h7.487v-.288c0-1.195-.33-2.144-.992-2.848-.64-.704-1.525-1.056-2.656-1.056zM109.055 24c-1.003 0-1.781-.245-2.336-.736-.533-.512-.853-1.216-.96-2.112h-.16c-.299 1.024-.885 1.824-1.76 2.4-.875.555-1.952.832-3.232.832-1.664 0-2.987-.437-3.968-1.312-.981-.875-1.472-2.09-1.472-3.648 0-3.328 2.443-4.992 7.328-4.992h2.912v-1.088c0-1.045-.256-1.835-.768-2.368-.512-.533-1.344-.8-2.496-.8-1.045 0-1.888.203-2.528.608a5.705 5.705 0 00-1.632 1.568l-2.336-1.984c.512-.917 1.333-1.685 2.464-2.304 1.152-.64 2.635-.96 4.448-.96 2.176 0 3.872.512 5.088 1.536 1.237 1.003 1.856 2.507 1.856 4.512v7.776h1.952V24h-2.4zm-7.072-2.432c.981 0 1.792-.224 2.432-.672.661-.47.992-1.099.992-1.888V16.8h-2.816c-2.24 0-3.36.704-3.36 2.112v.64c0 .661.245 1.163.736 1.504.491.341 1.163.512 2.016.512zm12.788-14.08h4.096V10.4h.224c.448-1.003 1.056-1.803 1.824-2.4.789-.597 1.824-.896 3.104-.896.938 0 1.792.181 2.56.544.789.341 1.461.875 2.016 1.6.554.704.981 1.6 1.28 2.688.298 1.088.448 2.357.448 3.808 0 1.45-.15 2.72-.448 3.808-.299 1.088-.726 1.995-1.28 2.72a5.426 5.426 0 01-2.016 1.6c-.768.341-1.622.512-2.56.512-1.28 0-2.315-.299-3.104-.896-.768-.597-1.376-1.397-1.824-2.4h-.224V30.4h-4.096V7.488zm7.52 13.632c1.194 0 2.112-.363 2.752-1.088.661-.725.992-1.717.992-2.976v-2.624c0-1.259-.331-2.25-.992-2.976-.64-.725-1.558-1.088-2.752-1.088-.939 0-1.75.235-2.432.704-.662.448-.992 1.141-.992 2.08v5.184c0 .939.33 1.643.992 2.112.682.448 1.493.672 2.432.672z" fill="#111827"/></svg>
