<svg viewBox="0 0 119 30" fill="none" xmlns="http://www.w3.org/2000/svg"><path d="M2.94 27.82H28.6V2.18H2.94v25.64zm20.71-15.29h-5.42V7.11h5.42v5.42zM7.88 7.11h5.42v10.36h10.35v5.42H7.88V7.1zm37.41-4.94a12.82 12.82 0 100 25.65 12.82 12.82 0 000-25.64zm0 20.72a7.89 7.89 0 110-15.78 7.89 7.89 0 010 15.78zm58.72-20.71a12.82 12.82 0 100 25.64 12.82 12.82 0 000-25.64zm0 20.7a7.89 7.89 0 110-15.77 7.89 7.89 0 010 15.78zM74.65 2.19a12.82 12.82 0 100 25.64 12.82 12.82 0 000-25.64zm0 20.7a7.89 7.89 0 117.5-10.35h-7.5v4.94h7.5a7.9 7.9 0 01-7.5 5.42z" fill="#9CA3AF"/></svg>
