<svg viewBox="0 0 100 51" fill="none" xmlns="http://www.w3.org/2000/svg"><path d="M2.59 29.52h2.83V43.4H2.59V29.5zM7.06 38.65a5.04 5.04 0 1110.09-.02 5.04 5.04 0 01-10.09.02zm7.23 0a2.19 2.19 0 10-2.19 2.25 2.13 2.13 0 002.2-2.25zM28.53 33.89v9.05c0 3.2-2.5 4.55-5.03 4.55a4.86 4.86 0 01-4.5-2.3l2.43-1.41a2.17 2.17 0 002.13 1.2 1.89 1.89 0 002.19-2.04v-.88a3.36 3.36 0 01-2.78 1.23 4.84 4.84 0 010-9.67 3.4 3.4 0 012.78 1.24v-.94l2.78-.03zm-2.78 4.57a2.3 2.3 0 10-2.3 2.2 2.15 2.15 0 002.3-2.2zM30.17 38.65a5.04 5.04 0 1110.08-.02 5.04 5.04 0 01-10.08.02zm7.23 0a2.2 2.2 0 10-1.33 2.08 2.14 2.14 0 001.31-2.08h.02zM41.57 31.34a1.72 1.72 0 113.43 0 1.72 1.72 0 01-3.43 0zm.29 2.55h2.83v9.52h-2.83v-9.52zM57.04 38.65a4.78 4.78 0 01-4.54 5.03 3.62 3.62 0 01-2.83-1.16v4.72h-2.83V33.9h2.83v.9a3.62 3.62 0 012.83-1.17 4.78 4.78 0 014.54 5.03zm-2.83 0a2.27 2.27 0 10-2.32 2.32 2.17 2.17 0 002.3-2.32h.02zM65.86 40.56c0 2.19-1.89 3.12-3.96 3.12a4.17 4.17 0 01-4.1-2.27l2.48-1.4a1.57 1.57 0 001.62 1.12c.69 0 1.03-.22 1.03-.6 0-1.04-4.73-.48-4.73-3.77 0-2.08 1.76-3.13 3.78-3.13a4.18 4.18 0 013.72 2.04l-2.48 1.3a1.4 1.4 0 00-1.29-.83c-.49 0-.79.18-.79.53.04 1.09 4.72.36 4.72 3.89zM76.29 33.89v9.52h-2.83v-.89a3.26 3.26 0 01-2.72 1.16c-1.9 0-3.56-1.37-3.56-3.95V33.9H70v5.43a1.57 1.57 0 001.7 1.73c1.05 0 1.77-.6 1.77-1.96v-5.2h2.8zM92.66 37.57v5.84h-2.83v-5.6c0-.94-.46-1.56-1.37-1.56-.9 0-1.5.67-1.5 1.8v5.36h-2.82v-5.6c0-.94-.46-1.56-1.37-1.56-.92 0-1.49.67-1.49 1.8v5.36h-2.83v-9.52h2.83v.88a2.93 2.93 0 012.55-1.15 2.83 2.83 0 012.5 1.26 3.13 3.13 0 012.75-1.26c2.16 0 3.58 1.57 3.58 3.95zM95.08 33.83a2.12 2.12 0 100-4.23 2.12 2.12 0 000 4.23z" fill="#9CA3AF"/><path d="M34.64 22.31a9.9 9.9 0 100-19.81 9.9 9.9 0 000 19.81z" fill="#9CA3AF"/><path d="M56.79 22.31a9.9 9.9 0 100-19.81 9.9 9.9 0 000 19.81z" fill="#9CA3AF"/><path d="M22.4 2.5H2.6v19.8h19.8V2.5z" fill="#9CA3AF"/></svg>
