<svg width="192" xmlns="http://www.w3.org/2000/svg" fill="none" viewBox="0 0 237 46"><path fill="url(#a)" d="m2.934 40.127 8.898-18.542 23.227-4.487-20.855 12.157-11.27 10.872ZM0 46l19.49-9.801h.235l-5.63-3.572L0 46Zm24.8-9.803 13.112-18.263-21.135 13.112 8 5.15h.022Zm2.642 1.22 14.24 8.023-7.37-18.018-6.87 9.972v.022ZM24.96 4.697h-.03l-8.288 4.9 20.13 3.979-11.812-8.879ZM.393.002l14.054 8.27 5.783-3.308h-.224v-.008L.392 0l.001.002Zm11.435 19.046 21.16-4.023-18.197-3.404L2.045 4.165 4.298 7.43l7.532 11.62h-.002Z"/><path fill="#0F172A" d="M60.981 18.21c-.654 0-1.282.16-1.88.48a4.96 4.96 0 0 0-1.55 1.291c-.162.204-.31.414-.44.633l-.063-2.132H53.68v13.003h3.516v-6.71c0-.425.07-.81.208-1.154.14-.345.336-.643.59-.897.255-.255.55-.452.886-.59.336-.14.692-.21 1.07-.21.295 0 .585.038.872.111.286.075.52.15.7.234l.935-3.81a2.567 2.567 0 0 0-.652-.184 5.225 5.225 0 0 0-.824-.061v-.004ZM74.07 20.042a5.789 5.789 0 0 0-1.942-1.352 6.162 6.162 0 0 0-2.446-.48c-.967 0-1.856.168-2.668.504a6.227 6.227 0 0 0-2.102 1.413 6.405 6.405 0 0 0-1.377 2.176c-.329.845-.491 1.774-.491 2.79 0 1.279.29 2.417.873 3.416.582 1 1.4 1.786 2.457 2.359s2.29.86 3.7.86c.605 0 1.212-.073 1.818-.22a8.03 8.03 0 0 0 1.77-.664 7.452 7.452 0 0 0 1.549-1.056l-1.647-2.336c-.558.443-1.074.753-1.548.935-.475.18-1.001.27-1.574.27-.837 0-1.56-.157-2.176-.467a3.29 3.29 0 0 1-1.413-1.34 3.684 3.684 0 0 1-.4-1.094h9.273l.024-1.082c.017-.934-.122-1.794-.417-2.581a6.063 6.063 0 0 0-1.265-2.053l.001.002Zm-6.194 1.574c.5-.287 1.119-.43 1.855-.43a2.79 2.79 0 0 1 2.273 1.13c.254.345.396.747.43 1.205v.074H66.49c.063-.273.146-.524.254-.75.255-.532.631-.942 1.13-1.229h.002ZM96.315 18.85c-.665-.41-1.505-.614-2.52-.614-.426 0-.86.066-1.303.197-.443.13-.868.315-1.279.552-.41.238-.778.521-1.106.849a5.046 5.046 0 0 0-.687.854 4.15 4.15 0 0 0-.64-1.124 3.38 3.38 0 0 0-1.364-1.008c-.533-.213-1.144-.319-1.832-.319-.443 0-.889.075-1.34.221a5.76 5.76 0 0 0-1.267.59 4.557 4.557 0 0 0-1.252 1.159l-.05-1.725h-3.369v13.003h3.514v-7.742c0-.36.067-.692.197-.996.13-.303.312-.564.541-.787a2.4 2.4 0 0 1 .836-.515 2.932 2.932 0 0 1 1.033-.185c.689 0 1.216.222 1.586.665.37.442.553 1.073.553 1.892v7.67h3.49v-7.742c0-.36.065-.689.197-.984.13-.295.312-.556.541-.787.23-.23.507-.405.836-.528.328-.122.68-.184 1.057-.184.72 0 1.257.213 1.61.639.352.426.527 1.082.527 1.966v7.62h3.49v-7.866c0-1.18-.168-2.168-.503-2.963-.336-.794-.837-1.396-1.5-1.806l.004-.002ZM109.686 18.702c-.778-.327-1.692-.492-2.74-.492-1.147 0-2.209.22-3.184.663a8.549 8.549 0 0 0-2.642 1.893l2.138 2.064c.458-.556.95-.966 1.476-1.227.524-.262 1.123-.394 1.794-.394.672 0 1.266.185 1.685.553.417.368.625.897.625 1.586v.37h-2.113c-.967 0-1.816.09-2.544.27-.729.179-1.336.438-1.818.774a3.215 3.215 0 0 0-1.094 1.279c-.246.517-.368 1.11-.368 1.782 0 .787.192 1.471.577 2.053a3.938 3.938 0 0 0 1.573 1.365c.665.327 1.406.492 2.226.492a4.56 4.56 0 0 0 1.818-.368 6.105 6.105 0 0 0 1.597-1.008c.051-.044.099-.091.148-.137v1.269h3.294v-8.825c0-.999-.214-1.827-.64-2.483-.427-.655-1.029-1.146-1.806-1.475l-.002-.004Zm-1.216 9.439a3.868 3.868 0 0 1-1.168.688 3.817 3.817 0 0 1-1.364.246 2.12 2.12 0 0 1-.873-.171 1.42 1.42 0 0 1-.602-.492 1.26 1.26 0 0 1-.221-.738c0-.26.053-.492.16-.688.106-.197.261-.37.466-.516.205-.147.458-.254.763-.319a4.93 4.93 0 0 1 1.045-.098h2.162v1.72a3.4 3.4 0 0 1-.368.368ZM122.579 18.21c-.654 0-1.282.16-1.881.48a4.963 4.963 0 0 0-1.548 1.291 5.68 5.68 0 0 0-.441.633l-.063-2.132h-3.368v13.003h3.516v-6.71c0-.425.069-.81.208-1.154a2.694 2.694 0 0 1 1.476-1.488c.336-.139.692-.208 1.07-.208.295 0 .585.037.872.11.286.075.521.15.7.234l.935-3.81a2.571 2.571 0 0 0-.651-.184 5.242 5.242 0 0 0-.825-.061v-.004ZM134.476 18.482l-4.941 5.02V13.295h-3.49v18.189h3.49v-4.091l1.16-1.084 4.151 5.175h4.202l-6.015-7.358 6.039-5.644h-4.596ZM148.475 18.702c-.779-.327-1.693-.492-2.741-.492-1.146 0-2.208.22-3.183.663a8.541 8.541 0 0 0-2.643 1.893l2.139 2.064c.458-.556.95-.966 1.475-1.227.525-.262 1.123-.394 1.795-.394.672 0 1.265.185 1.684.553.417.368.626.897.626 1.586v.37h-2.113c-.967 0-1.817.09-2.544.27-.73.179-1.337.438-1.819.774a3.223 3.223 0 0 0-1.094 1.279c-.245.516-.368 1.11-.368 1.782 0 .787.192 1.471.577 2.053a3.934 3.934 0 0 0 1.574 1.365c.665.327 1.406.492 2.225.492.64 0 1.245-.122 1.818-.368a6.11 6.11 0 0 0 1.598-1.008c.051-.044.098-.091.148-.137v1.269h3.293v-8.825c0-.999-.213-1.827-.639-2.483-.427-.655-1.03-1.146-1.806-1.475l-.002-.004Zm-1.216 9.439a3.873 3.873 0 0 1-1.169.688 3.811 3.811 0 0 1-1.363.246c-.328 0-.619-.057-.874-.171a1.432 1.432 0 0 1-.602-.492 1.266 1.266 0 0 1-.22-.738c0-.26.052-.492.159-.688.107-.197.261-.37.466-.516.206-.147.458-.254.764-.319a4.927 4.927 0 0 1 1.044-.098h2.163v1.72a3.4 3.4 0 0 1-.368.368ZM164.512 19.084c-.885-.582-1.901-.872-3.047-.872-.525 0-1.042.082-1.549.246-.509.165-.975.39-1.401.677a4.629 4.629 0 0 0-.933.826v-6.664h-3.516v18.14h3.32l.069-1.437c.27.295.587.563.963.798.443.279.933.504 1.474.675a5.455 5.455 0 0 0 1.673.258c1.114 0 2.109-.29 2.986-.872.877-.581 1.569-1.38 2.078-2.396.507-1.016.761-2.18.761-3.49 0-1.311-.257-2.455-.775-3.48-.515-1.023-1.216-1.826-2.101-2.407l-.002-.002Zm-.934 7.866a3.293 3.293 0 0 1-1.143 1.326c-.484.32-1.054.48-1.708.48-.655 0-1.204-.16-1.696-.48a3.253 3.253 0 0 1-1.155-1.326c-.278-.566-.418-1.224-.418-1.98 0-.754.14-1.388.418-1.953a3.272 3.272 0 0 1 1.155-1.328c.492-.319 1.056-.48 1.696-.48.639 0 1.229.16 1.721.48a3.17 3.17 0 0 1 1.143 1.328c.27.565.406 1.216.406 1.954s-.139 1.413-.418 1.98h-.001ZM173.533 13.295h-3.49v18.19h3.49v-18.19ZM186.968 20.042a5.78 5.78 0 0 0-1.942-1.352 6.16 6.16 0 0 0-2.445-.48c-.967 0-1.856.168-2.668.504a6.234 6.234 0 0 0-2.102 1.413 6.424 6.424 0 0 0-1.377 2.176c-.329.845-.492 1.774-.492 2.79 0 1.279.29 2.417.874 3.416.582 1 1.401 1.786 2.457 2.359 1.057.573 2.29.86 3.699.86.606 0 1.213-.073 1.819-.22a8.033 8.033 0 0 0 1.77-.664 7.442 7.442 0 0 0 1.549-1.056l-1.647-2.336c-.558.443-1.074.753-1.549.935-.474.18-1 .27-1.573.27-.837 0-1.561-.157-2.177-.467a3.271 3.271 0 0 1-1.412-1.34 3.674 3.674 0 0 1-.401-1.094h9.274l.024-1.082c.017-.934-.122-1.794-.417-2.581a6.073 6.073 0 0 0-1.265-2.053l.001.002Zm-6.194 1.574c.501-.287 1.12-.43 1.856-.43a2.791 2.791 0 0 1 2.273 1.13c.254.345.396.747.43 1.205v.074h-5.944c.062-.273.146-.524.254-.75a2.751 2.751 0 0 1 1.13-1.229h.001ZM192.289 28.756c-.411 0-.741.136-.996.406-.254.27-.381.626-.381 1.068 0 .475.118.84.356 1.094.237.255.578.382 1.019.382.411 0 .741-.14.996-.418.254-.278.381-.63.381-1.056 0-.475-.118-.84-.356-1.094-.237-.254-.578-.382-1.021-.382h.002ZM206.841 20.758a4.926 4.926 0 0 0-1.143-1.208 5.918 5.918 0 0 0-1.635-.873 5.635 5.635 0 0 0-1.869-.32c-1.147 0-2.183.293-3.109.874-.926.582-1.659 1.378-2.2 2.385-.541 1.008-.811 2.16-.811 3.453 0 1.294.272 2.419.811 3.418a6.27 6.27 0 0 0 2.2 2.372c.926.582 1.986.872 3.183.872a5.458 5.458 0 0 0 3.331-1.143c.451-.353.823-.75 1.118-1.192.044-.066.085-.133.122-.2v2.29h1.869v-18.19h-1.869v7.462h.002Zm-.516 6.893a4.47 4.47 0 0 1-1.56 1.782c-.663.434-1.423.651-2.275.651-.851 0-1.667-.217-2.347-.65a4.475 4.475 0 0 1-1.598-1.795c-.385-.762-.578-1.618-.578-2.57 0-.951.192-1.855.578-2.617a4.566 4.566 0 0 1 1.598-1.806c.68-.443 1.454-.665 2.324-.665.87 0 1.635.222 2.298.665a4.563 4.563 0 0 1 1.56 1.794c.377.753.565 1.622.565 2.605 0 .984-.188 1.852-.565 2.605ZM221.983 20.067a5.375 5.375 0 0 0-1.856-1.266 5.945 5.945 0 0 0-2.298-.443c-.934 0-1.794.165-2.581.492a5.826 5.826 0 0 0-2.027 1.389 6.483 6.483 0 0 0-1.328 2.139c-.319.827-.48 1.741-.48 2.74 0 1.28.283 2.417.848 3.416a6.087 6.087 0 0 0 2.347 2.348c.999.564 2.148.848 3.442.848.605 0 1.212-.082 1.818-.246a7.883 7.883 0 0 0 1.708-.677 5.93 5.93 0 0 0 1.389-1.02l-.933-1.327c-.624.558-1.238.954-1.844 1.192a5.343 5.343 0 0 1-1.965.356c-.984 0-1.849-.209-2.594-.626a4.37 4.37 0 0 1-1.733-1.745c-.353-.641-.558-1.382-.621-2.224h10.256l.024-.934c.032-.9-.09-1.725-.37-2.471a5.624 5.624 0 0 0-1.204-1.942l.002.002Zm-8.173 2.31a3.861 3.861 0 0 1 1.562-1.695c.688-.402 1.507-.603 2.457-.603.672 0 1.291.156 1.856.468a3.95 3.95 0 0 1 1.389 1.28c.359.54.556 1.163.59 1.867l-.009.196h-8.305c.09-.558.242-1.061.46-1.51v-.002ZM235.034 18.58l-4.206 10.11-4.078-10.11h-2.04l5.383 12.904h1.328l5.555-12.904h-1.942Z"/><defs><linearGradient id="a" x1="2.12" x2="38.415" y1="41.468" y2="15.519" gradientUnits="userSpaceOnUse"><stop stop-color="#0284C7"/><stop offset=".496" stop-color="#2CB1EE"/><stop offset="1" stop-color="#7DD3FC"/></linearGradient></defs></svg>
