<svg viewBox="0 0 140 30" fill="none" xmlns="http://www.w3.org/2000/svg"><path d="M22.42 13.37a3.66 3.66 0 00-1.05 2.93l-.02-.02a4.34 4.34 0 01-4.69 4.7l.02.01A3.68 3.68 0 1020 24.31l.02.02a4.34 4.34 0 014.7-4.7l-.03-.01a3.67 3.67 0 10-2.27-6.25z" fill="#9CA3AF"/><path d="M15.04 18.64l-.02-.02A3.63 3.63 0 0019 14.64l.02.02a4.35 4.35 0 014.7-4.7l-.03-.01a3.68 3.68 0 10-3.31-3.32l-.02-.02a4.34 4.34 0 01-4.7 4.7l.02.02a3.63 3.63 0 00-3.97 3.97l-.02-.02a4.35 4.35 0 01-4.7 4.7l.02.01a3.68 3.68 0 103.32 3.32l.02.02a4.34 4.34 0 014.7-4.7z" fill="#9CA3AF"/><path d="M8.34 16.63a3.65 3.65 0 001.04-2.93l.02.02a4.34 4.34 0 014.7-4.7l-.02-.01a3.68 3.68 0 10-3.32-3.32l-.02-.02a4.34 4.34 0 01-4.69 4.7l.02.01a3.67 3.67 0 102.27 6.25zM39.32 6.66h2.97V21.1h-2.97V6.66zM43.97 16.16a5.25 5.25 0 1110.5-.04 5.25 5.25 0 01-10.5.04zm7.52 0a2.28 2.28 0 10-2.27 2.34 2.22 2.22 0 002.27-2.34zM66.3 11.2v9.4c0 3.33-2.6 4.74-5.23 4.74a5.06 5.06 0 01-4.69-2.4l2.53-1.46a2.26 2.26 0 002.26 1.24 1.97 1.97 0 002.24-2.11v-.91a3.52 3.52 0 01-2.9 1.29 5.03 5.03 0 010-10.06 3.52 3.52 0 012.9 1.29V11.2h2.89zm-2.89 4.76a2.4 2.4 0 10-2.4 2.3 2.24 2.24 0 002.4-2.3zM67.98 16.16a5.25 5.25 0 1110.5-.04 5.25 5.25 0 01-10.5.04zm7.53 0a2.28 2.28 0 10-2.28 2.34 2.22 2.22 0 002.28-2.34zM79.86 8.56a1.78 1.78 0 113.56 0 1.78 1.78 0 01-3.56 0zm.3 2.65h2.97v9.9h-2.97v-9.9zM95.96 16.16a4.97 4.97 0 01-4.74 5.23 3.72 3.72 0 01-2.94-1.21v4.89H85.3V11.2h2.97v.93a3.72 3.72 0 012.94-1.2 4.97 4.97 0 014.74 5.22zm-2.97 0a2.36 2.36 0 10-2.36 2.41A2.26 2.26 0 0093 16.16zM105.12 18.14c0 2.27-1.98 3.25-4.12 3.25a4.33 4.33 0 01-4.25-2.36l2.57-1.47a1.63 1.63 0 001.68 1.17c.71 0 1.07-.22 1.07-.61 0-1.1-4.87-.52-4.87-3.94 0-2.16 1.82-3.25 3.88-3.25a4.33 4.33 0 013.86 2.12l-2.53 1.37a1.44 1.44 0 00-1.33-.88c-.52 0-.83.2-.83.56 0 1.13 4.87.38 4.87 4.04zM115.97 11.2v9.9H113v-.92a3.39 3.39 0 01-2.83 1.2c-2 0-3.7-1.42-3.7-4.1v-6.07h2.97v5.64a1.62 1.62 0 001.03 1.7c.22.08.45.12.7.1 1.08 0 1.83-.63 1.83-2.04v-5.4h2.97zM133 15.03v6.08h-2.97v-5.82c0-1-.47-1.63-1.43-1.63-.98 0-1.54.7-1.54 1.87v5.58h-2.97v-5.82c0-1-.47-1.63-1.42-1.63-1 0-1.55.7-1.55 1.87v5.58h-2.97v-9.9h2.97v.9a3.04 3.04 0 012.65-1.18 2.95 2.95 0 012.6 1.3 3.26 3.26 0 012.87-1.3c2.27 0 3.76 1.63 3.76 4.1zM135.51 11.15a2.2 2.2 0 100-4.41 2.2 2.2 0 000 4.4z" fill="#9CA3AF"/></svg>
