<svg viewBox="0 0 132 35" fill="none" xmlns="http://www.w3.org/2000/svg"><path d="M44.83 25.2c-.6.04-1.18-.13-1.67-.48a1.56 1.56 0 01-.63-1.3v-9.28a.26.26 0 01.29-.29h1.68c.19 0 .28.1.28.3v8.54c0 .38.17.57.52.57.15.01.3 0 .44-.05.2 0 .31.06.32.24l.15 1.25a.26.26 0 01-.24.31c-.37.13-.75.19-1.14.2zM54.28 24.13a4.71 4.71 0 01-6 0 4 4 0 010-5.63 4.73 4.73 0 016 0 4.06 4.06 0 010 5.62v.01zm-4.42-1.32a2.13 2.13 0 002.86 0 2.24 2.24 0 000-2.94 2.13 2.13 0 00-2.86 0 2.24 2.24 0 000 2.94zM64.66 17.68c.19 0 .28.1.28.3v7.16a3.26 3.26 0 01-1.11 2.57 4.2 4.2 0 01-2.91 1c-.96.04-1.9-.22-2.71-.75a3 3 0 01-1.31-2c0-.2 0-.29.27-.29h1.68a.37.37 0 01.33.23c.1.3.33.56.61.71.35.18.73.27 1.12.26a1.77 1.77 0 001.29-.46 1.7 1.7 0 00.47-1.25v-.63c-.6.45-1.33.68-2.08.65a3.88 3.88 0 01-2.84-1.09 4 4 0 010-5.56 3.91 3.91 0 012.84-1.08c.77-.02 1.52.23 2.13.7v-.17a.26.26 0 01.28-.29h1.66zm-3.88 5.72a1.76 1.76 0 001.37-.59 2.45 2.45 0 000-3 1.75 1.75 0 00-1.36-.58 1.8 1.8 0 00-1.39.6c-.37.4-.56.94-.54 1.5-.02.54.17 1.07.53 1.48a1.81 1.81 0 001.39.6zM73.57 24.13a4.73 4.73 0 01-6 0 4.07 4.07 0 010-5.63 4.74 4.74 0 016 0 4.06 4.06 0 010 5.62v.01zm-4.43-1.32a2 2 0 001.44.55 2 2 0 001.43-.55 2.27 2.27 0 000-2.94 2 2 0 00-1.43-.55 2 2 0 00-1.44.55 2.27 2.27 0 000 2.94zM78.31 15.98a1.45 1.45 0 01-1.91 0 1.21 1.21 0 010-1.76 1.48 1.48 0 011.91 0 1.2 1.2 0 010 1.76zm.21 9.22c-.6.03-1.18-.13-1.67-.48a1.58 1.58 0 01-.62-1.3v-5.45a.26.26 0 01.29-.29h1.68c.19 0 .28.1.28.3v4.71c0 .38.17.57.51.57.15.01.3 0 .45-.05.2 0 .31.06.32.24l.15 1.25a.26.26 0 01-.24.31c-.37.13-.76.2-1.15.2zM86.09 17.44a3.92 3.92 0 012.86 1.08 4.1 4.1 0 010 5.6 3.89 3.89 0 01-2.86 1.08 3.44 3.44 0 01-2.09-.65v3.61c0 .2-.1.28-.29.28h-1.68a.24.24 0 01-.28-.28v-8.2a.52.52 0 00-.59-.59h-.33c-.22 0-.33-.08-.33-.24v-1.18a.32.32 0 01.23-.33 3 3 0 011.08-.18 1.85 1.85 0 011.81 1 3.37 3.37 0 012.47-1zm-1.56 5.37a1.9 1.9 0 002.76 0c.38-.41.57-.96.55-1.53a2.13 2.13 0 00-.55-1.53 1.91 1.91 0 00-2.76 0c-.36.43-.55.98-.53 1.53-.02.56.17 1.1.53 1.53zM94.77 25.2c-.9.04-1.79-.17-2.57-.62a2.44 2.44 0 01-1.16-1.77c0-.2.07-.3.29-.3h1.47a.38.38 0 01.33.22c.21.54.76.81 1.64.81.3.02.61-.04.89-.18a.58.58 0 00.34-.49c0-.26-.16-.44-.48-.56a5.4 5.4 0 00-1.17-.25c-.47-.05-.94-.13-1.4-.25a2.3 2.3 0 01-1.17-.67 2.14 2.14 0 01.43-3.1 4.12 4.12 0 012.42-.64c.83-.02 1.64.18 2.36.6a2.23 2.23 0 011.1 1.56c0 .2-.09.3-.27.3h-1.48a.31.31 0 01-.3-.18 1 1 0 00-.52-.53c-.27-.13-.56-.2-.86-.2-.3-.01-.59.05-.85.17a.5.5 0 00-.32.46.64.64 0 00.48.6c.38.14.78.24 1.19.3.47.06.93.14 1.39.25.45.1.86.34 1.17.67a1.89 1.89 0 01.49 1.37 2 2 0 01-.93 1.74c-.75.48-1.62.72-2.51.7zM108.78 24.7v.11a.27.27 0 01-.13.17 3.86 3.86 0 01-1.23.23 2.22 2.22 0 01-2-.88c-.7.61-1.62.92-2.55.87a3.1 3.1 0 01-2.34-.9 3.28 3.28 0 01-.89-2.42v-3.9c0-.2.09-.3.28-.3h1.68c.19 0 .28.1.28.3v3.6c-.02.45.14.9.43 1.23a1.5 1.5 0 001.15.47 1.66 1.66 0 001.2-.44 1.6 1.6 0 00.45-1.19v-3.68c0-.19.09-.29.28-.29h1.7c.19 0 .28.1.28.3v4.7c0 .4.17.58.5.58.16.01.31 0 .46-.05a.26.26 0 01.33.24l.12 1.25zM124.67 24.7v.11c0 .04-.02.07-.04.1a.25.25 0 01-.19.1c-.37.13-.76.19-1.15.2-.6.03-1.18-.14-1.67-.49a1.56 1.56 0 01-.67-1.3v-2.36c.02-.44-.13-.88-.42-1.23a1.42 1.42 0 00-1.12-.47 1.26 1.26 0 00-1 .44c-.26.34-.4.76-.38 1.18v3.7c0 .18-.09.28-.28.28h-1.69a.26.26 0 01-.22-.07.26.26 0 01-.07-.22v-3.6c.02-.45-.12-.89-.39-1.24a1.3 1.3 0 00-1-.47 1.45 1.45 0 00-1.1.44c-.29.33-.43.75-.41 1.18v3.7a.26.26 0 01-.07.21.26.26 0 01-.22.07h-1.63c-.19 0-.28-.1-.28-.29v-4.7a.51.51 0 00-.15-.45.52.52 0 00-.44-.15h-.33c-.22 0-.33-.08-.33-.24v-1.18a.32.32 0 01.23-.33 3 3 0 011.08-.18 1.88 1.88 0 011.78.92 3.38 3.38 0 012.54-.92 2.87 2.87 0 012.37 1.06 3.3 3.3 0 012.62-1.06 3.16 3.16 0 012.37.91 3.26 3.26 0 01.89 2.41v1.93c0 .38.17.57.49.57.15.01.31 0 .46-.05.2 0 .32.08.33.24l.09 1.25zM7.41 16.38a13.69 13.69 0 0126.57 0h-1.2a9.69 9.69 0 00-5.97 1.92h-.14a10.17 10.17 0 00-11.95 0h-.14a9.69 9.69 0 00-5.97-1.92h-1.2zm23.21 6.27a3.37 3.37 0 012.16-.7h1.61v-3.22h-1.61a6.38 6.38 0 00-3.83 1.22 3.64 3.64 0 01-4.32 0 6.8 6.8 0 00-7.77 0 3.64 3.64 0 01-4.32 0 6.38 6.38 0 00-3.88-1.22H7v3.21h1.61c.78-.02 1.54.23 2.16.71a6.78 6.78 0 007.76 0 3.4 3.4 0 012.16-.7c.78-.03 1.54.22 2.16.7a6.8 6.8 0 007.77 0zm0 5.74a3.37 3.37 0 012.16-.7h1.61v-3.22h-1.61a6.38 6.38 0 00-3.83 1.22 3.64 3.64 0 01-4.32 0 6.8 6.8 0 00-7.77 0 3.64 3.64 0 01-4.32 0 6.38 6.38 0 00-3.88-1.22H7v3.21h1.61c.78-.02 1.54.23 2.16.71a6.78 6.78 0 007.76 0 3.4 3.4 0 012.16-.7c.78-.03 1.54.22 2.16.7a6.8 6.8 0 007.77 0z" fill="#9CA3AF"/></svg>
